# xmcd
#
# Track frame offsets: 
#        174
#        16741
#        35479
#        58596
#        77205
#        94565
#        116198
#        138672
#        156681
#        172951
#
# Disc length: 2580 seconds
#
# Revision: 0
# Processed by: cddbd v1.5.2PL0 Copyright (c) Steve Scherf et al.
# Submitted via: ExactAudioCopy v0.99pb5
#
DISCID=820a120a
DTITLE=Eradicate - Relentless
DYEAR=2006
DGENRE=Death Metal
TTITLE0=Self-Disfigurement
TTITLE1=Buried to suffocate
TTITLE2=Chamber of Torture
TTITLE3=The Undead
TTITLE4=Blood will flow
TTITLE5=Suicide
TTITLE6=Deathmatch
TTITLE7=Excitation by kill
TTITLE8=Execute them
TTITLE9=Demolished, Deformed, Defaced
EXTD=
EXTT0=
EXTT1=
EXTT2=
EXTT3=
EXTT4=
EXTT5=
EXTT6=
EXTT7=
EXTT8=
EXTT9=
PLAYORDER=
